<?xml version="1.0" encoding="UTF-8" standalone="no"?>
<!-- Created with Inkscape (http://www.inkscape.org/) -->

<svg
   xmlns:dc="http://purl.org/dc/elements/1.1/"
   xmlns:cc="http://creativecommons.org/ns#"
   xmlns:rdf="http://www.w3.org/1999/02/22-rdf-syntax-ns#"
   xmlns:svg="http://www.w3.org/2000/svg"
   xmlns="http://www.w3.org/2000/svg"
   xmlns:sodipodi="http://sodipodi.sourceforge.net/DTD/sodipodi-0.dtd"
   xmlns:inkscape="http://www.inkscape.org/namespaces/inkscape"
   width="333.33279pt"
   height="333.37878pt"
   viewBox="0 0 117.59241 117.60863"
   version="1.1"
   id="svg8"
   inkscape:version="0.92+devel unknown"
   sodipodi:docname="mqm_logo.svg">
  <defs
     id="defs2" />
  <sodipodi:namedview
     id="base"
     pagecolor="#ffffff"
     bordercolor="#666666"
     borderopacity="1.0"
     inkscape:pageopacity="0.0"
     inkscape:pageshadow="2"
     inkscape:zoom="0.7"
     inkscape:cx="290.80362"
     inkscape:cy="326.05855"
     inkscape:document-units="pt"
     inkscape:current-layer="layer3"
     inkscape:document-rotation="0"
     showgrid="false"
     inkscape:window-width="1334"
     inkscape:window-height="992"
     inkscape:window-x="283"
     inkscape:window-y="28"
     inkscape:window-maximized="0"
     fit-margin-top="5"
     fit-margin-left="5"
     fit-margin-right="5"
     fit-margin-bottom="5"
     units="pt" />
  <metadata
     id="metadata5">
    <rdf:RDF>
      <cc:Work
         rdf:about="">
        <dc:format>image/svg+xml</dc:format>
        <dc:type
           rdf:resource="http://purl.org/dc/dcmitype/StillImage" />
        <dc:title></dc:title>
      </cc:Work>
    </rdf:RDF>
  </metadata>
  <g
     inkscape:groupmode="layer"
     id="layer2"
     inkscape:label="Layer 2"
     style="display:inline"
     sodipodi:insensitive="true"
     transform="translate(-32.607237,-34.079518)">
    <path
       style="opacity:1;vector-effect:none;fill:#89b267;fill-opacity:1;stroke:none;stroke-width:5.06798983;stroke-linecap:round;stroke-linejoin:round;stroke-miterlimit:4;stroke-dasharray:none;stroke-dashoffset:0;stroke-opacity:1"
       d="m 345.21875,151.03516 c -1.22015,1.5e-4 -2.44264,0.0127 -3.66602,0.0352 -109.93527,2.16685 -197.5084,92.66418 -196.06445,202.61133 1.44388,109.94742 91.36382,198.1139 201.31836,197.39258 73.42565,-0.48182 137.39888,-40.48086 171.80078,-99.74805 10.62569,-23.01199 27.18514,-51.71822 26.83985,-77.52539 -25.66908,-33.79365 -42.18308,58.06436 -87.13282,66.64453 -10.00339,0 -67.74289,-81.42968 -79.28515,-81.42969 -12.11421,0 -58.96247,35.84604 -66.42969,35.71485 -7.2934,-0.12813 -49.89935,-65.51367 -61.6543,-65.51367 -11.88284,0 -37.12121,7.97196 -57.28906,6.42187 -4.98096,-0.31113 52.06736,-45.49609 57.88086,-45.49609 7.9088,0 51.38446,41.85201 62.24805,41.35547 10.86359,-0.49654 61.91468,-74.14258 77.42187,-74.14258 18.34723,0 47.01726,52.85742 57.14258,52.85742 45.84858,-7.70006 52.57737,-48.40511 77.26562,-45.57031 C 492.31128,195.12222 422.08831,151.0256 345.21875,151.03516 Z"
       transform="scale(0.26458333)"
       id="rect4479"
       inkscape:connector-curvature="0" />
    <path
       style="opacity:1;vector-effect:none;fill:#ebccd1;fill-opacity:1;stroke:none;stroke-width:5.06798983;stroke-linecap:round;stroke-linejoin:round;stroke-miterlimit:4;stroke-dasharray:none;stroke-dashoffset:0;stroke-opacity:1"
       d="m 345.21875,151.03516 c -1.22015,1.5e-4 -2.44264,0.0127 -3.66602,0.0352 C 237.6578,153.1181 153.75029,234.06025 146.06055,335.75 l 41.4414,0.79297 6.14453,-0.90625 c -4.87764,-0.38273 52.08179,-45.49414 57.89063,-45.49414 7.9088,0 51.38446,41.85201 62.24805,41.35547 10.86359,-0.49654 61.91468,-74.14258 77.42187,-74.14258 18.34723,0 47.01726,52.85742 57.14258,52.85742 45.84858,-7.70006 52.57737,-48.40511 77.26562,-45.57031 C 492.31128,195.12222 422.08831,151.0256 345.21875,151.03516 Z"
       transform="scale(0.26458333)"
       id="rect4476"
       inkscape:connector-curvature="0" />
    <path
       id="path4484"
       transform="scale(0.26458333)"
       d="m 345.21875,151.03516 c -1.22015,1.5e-4 -2.44264,0.0127 -3.66602,0.0352 C 237.6578,153.1181 153.75029,234.06025 146.06055,335.75 l 41.4414,0.79297 6.14453,-0.90625 c -4.87764,-0.38273 52.08179,-45.49414 57.89063,-45.49414 7.9088,0 51.38446,41.85201 62.24805,41.35547 10.86359,-0.49654 61.91468,-74.14258 77.42187,-74.14258 18.34723,0 47.01726,52.85742 57.14258,52.85742 45.84858,-7.70006 52.57737,-48.40511 77.26562,-45.57031 C 492.31128,195.12222 422.08831,151.0256 345.21875,151.03516 Z"
       style="opacity:1;vector-effect:none;fill:#ca9aa1;fill-opacity:1;stroke:none;stroke-width:5.06798983;stroke-linecap:round;stroke-linejoin:round;stroke-miterlimit:4;stroke-dasharray:none;stroke-dashoffset:0;stroke-opacity:1"
       inkscape:connector-curvature="0" />
    <path
       style="opacity:1;vector-effect:none;fill:#ab6b75;fill-opacity:1;stroke:none;stroke-width:5.06798983;stroke-linecap:round;stroke-linejoin:round;stroke-miterlimit:4;stroke-dasharray:none;stroke-dashoffset:0;stroke-opacity:1"
       d="M 341.55273,151.07031 V 304.8418 c 18.49158,-21.27261 40.38747,-47.48633 49.6543,-47.48633 18.34723,0 47.01726,52.85742 57.14258,52.85742 45.84858,-7.70006 52.57737,-48.40511 77.26562,-45.57031 -32.76484,-68.395 -101.26417,-112.1817 -176.66992,-113.57227 z"
       transform="scale(0.26458333)"
       id="rect4489"
       inkscape:connector-curvature="0" />
    <path
       style="opacity:1;vector-effect:none;fill:#b5d49b;fill-opacity:1;stroke:none;stroke-width:5.81086445;stroke-linecap:round;stroke-linejoin:round;stroke-miterlimit:4;stroke-dasharray:none;stroke-dashoffset:0;stroke-opacity:1"
       d="m 236.97266,330.93945 c -12.75525,2.24699 -29.22984,5.78191 -43.31641,4.69922 -0.62839,-0.0392 -0.26517,-0.79715 0.85352,-2.08398 h -48.28321 c -0.57388,6.62407 -0.82743,13.33837 -0.73828,20.12695 1.41874,108.03307 88.26154,195.03106 195.5957,197.34375 V 378.81445 c -13.01682,8.25492 -25.01986,15.97688 -28.48437,15.91602 -6.40855,-0.11258 -40.07234,-50.5948 -56.12305,-62.8457 -4.99003,-4.45891 -11.91273,-2.42075 -19.5039,-0.94532 z"
       transform="scale(0.26458333)"
       id="rect4494"
       inkscape:connector-curvature="0"
       sodipodi:nodetypes="ccccsccscc" />
  </g>
  <g
     inkscape:label="Layer 1"
     inkscape:groupmode="layer"
     id="layer1"
     style="display:none"
     transform="translate(-32.607237,-34.079518)">
    <path
       style="fill:none;stroke:#a94442;stroke-width:1.76388884;stroke-linecap:butt;stroke-linejoin:miter;stroke-miterlimit:4;stroke-dasharray:none;stroke-opacity:1"
       d="M 90.369324,39.970477 C 61.282282,40.543789 38.11189,64.487872 38.493936,93.578055 c 0.382026,29.090255 24.173342,52.417635 53.265482,52.226785 19.427202,-0.12748 36.353162,-10.71057 45.455332,-26.39168 2.81138,-6.08859 7.19303,-13.68377 7.10167,-20.511916 -6.79161,-8.941238 -11.16094,15.362866 -23.05389,17.633036 -2.64673,0 -17.92364,-21.54494 -20.97753,-21.54494 -3.205216,0 -15.60049,9.48426 -17.576192,9.44955 -1.929712,-0.0339 -13.202533,-17.333824 -16.312697,-17.333824 -3.144003,0 -9.821656,2.109248 -15.157733,1.69912 -1.317879,-0.08232 13.776156,-12.037507 15.314311,-12.037507 2.092537,0 13.595471,11.073344 16.469796,10.941968 2.874325,-0.131376 16.38159,-19.616891 20.484535,-19.616891 4.85437,0 12.43999,13.985192 15.11898,13.985192 12.13077,-2.037307 13.91109,-12.807185 20.44319,-12.057144 C 130.11765,51.333908 111.08522,39.590305 90.369324,39.970477 Z"
       id="path4405"
       inkscape:connector-curvature="0"
       sodipodi:nodetypes="csccccscscsssccc" />
  </g>
  <g
     inkscape:groupmode="layer"
     id="layer3"
     inkscape:label="Layer 3"
     style="display:inline"
     transform="translate(-32.607237,-34.079518)">
    <path
       style="display:inline;fill:none;fill-opacity:1;stroke:#3c763d;stroke-width:6.66666651;stroke-linecap:butt;stroke-linejoin:miter;stroke-miterlimit:4;stroke-dasharray:none;stroke-opacity:1"
       d="m 146.42969,331.47461 c -0.0678,0.69734 -0.14453,1.39242 -0.20508,2.0918 0.0605,-0.69935 0.13735,-1.39449 0.20508,-2.0918 v 0"
       id="path4599"
       transform="scale(0.26458333)"
       inkscape:connector-curvature="0"
       sodipodi:nodetypes="cccc" />
    <path
       style="display:inline;fill:none;fill-opacity:1;stroke:#3c763d;stroke-width:6.66666651;stroke-linecap:butt;stroke-linejoin:miter;stroke-miterlimit:4;stroke-dasharray:none;stroke-opacity:1"
       d="m 146.20506,333.83009 c -0.55713,6.535 -0.80472,13.15678 -0.7168,19.85156 1.44388,109.9474 91.36382,198.11388 201.31836,197.39255 73.42563,-0.48181 137.39886,-40.48085 171.80076,-99.74804 10.62569,-23.01199 27.18516,-51.71822 26.83986,-77.52537 -25.66907,-33.79365 -42.18304,58.06436 -87.13277,66.64453 -10.00339,0 -67.74293,-81.42968 -79.28519,-81.42969 -12.11421,0 -58.96247,35.84601 -66.42969,35.71483 -7.2934,-0.12813 -49.89935,-65.51365 -61.6543,-65.51365 l 2e-5,-1e-5 c -11.88284,0 -37.12121,7.97196 -57.28906,6.42187 -0.61404,-0.0384 -0.27787,-0.7645 0.78125,-1.99805 -0.0113,0.0132 -0.028,0.0299 -0.0391,0.043"
       id="path4597"
       transform="scale(0.26458333)"
       inkscape:connector-curvature="0"
       sodipodi:nodetypes="csccccssccccc" />
    <path
       style="display:inline;fill:none;fill-rule:nonzero;stroke:#a94442;stroke-width:6.6670866;stroke-linecap:round;stroke-linejoin:round;stroke-miterlimit:4;stroke-dasharray:none;stroke-opacity:1"
       d="m 194.39783,333.68389 c 7.43506,-8.70958 52.03563,-43.54211 57.13989,-43.54211 7.90881,0 51.38446,41.85201 62.24805,41.35547 10.86359,-0.49654 61.91467,-74.14258 77.42186,-74.14258 18.34723,0 47.01729,52.85742 57.14261,52.85742 45.84858,-7.70006 52.57734,-48.40511 77.2656,-45.57031 C 491.78324,194.01792 419.84965,149.63265 341.55335,151.06952 v 0 c -103.24198,2.03492 -186.76191,81.97192 -195.35332,182.76109"
       id="path4592"
       transform="scale(0.26458333)"
       inkscape:connector-curvature="0"
       sodipodi:nodetypes="csssccccc" />
    <rect
       style="opacity:1;vector-effect:none;fill:none;fill-opacity:1;stroke:none;stroke-width:1.34090567;stroke-linecap:round;stroke-linejoin:round;stroke-miterlimit:4;stroke-dasharray:none;stroke-dashoffset:0;stroke-opacity:1"
       id="rect4558"
       width="10.929902"
       height="3.1623282"
       x="39.674301"
       y="86.472046" />
  </g>
</svg>
